ply
format ascii 1.0
comment VCGLIB generated
comment TextureFile texture13.png
element vertex 16
property float x
property float y
property float z
element face 24
property list uchar int vertex_indices
property list uchar float texcoord
end_header
-0.5 -0.5 -0.5 
0.5 -0.5 -0.5 
-0.5 0.5 -0.5 
0.5 0.5 -0.5 
-0.5 -0.5 0.5 
0.5 -0.5 0.5 
-0.5 0.5 0.5 
0.5 0.5 0.5 
-1.004 -0.47819 -1.00147 
1.004 -0.47819 -1.00147 
-1.004 0.47819 -1.00147 
1.004 0.47819 -1.00147 
-1.004 -0.47819 1.00147 
1.004 -0.47819 1.00147 
-1.004 0.47819 1.00147 
1.004 0.47819 1.00147 
3 2 1 0 6 0.5 0.5 0.5 0.5 0.5 0.5 
3 1 2 3 6 0.5 0.5 0.5 0.5 0.5 0.5 
3 4 2 0 6 0.5 0.5 0.5 0.5 0.5 0.5 
3 2 4 6 6 0.5 0.5 0.5 0.5 0.5 0.5 
3 1 4 0 6 0.5 0.5 0.5 0.5 0.5 0.5 
3 4 1 5 6 0.5 0.5 0.5 0.5 0.5 0.5 
3 6 5 7 6 0.5 0.5 0.5 0.5 0.5 0.5 
3 5 6 4 6 0.5 0.5 0.5 0.5 0.5 0.5 
3 3 6 7 6 0.5 0.5 0.5 0.5 0.5 0.5 
3 6 3 2 6 0.5 0.5 0.5 0.5 0.5 0.5 
3 5 3 7 6 0.5 0.5 0.5 0.5 0.5 0.5 
3 3 5 1 6 0.5 0.5 0.5 0.5 0.5 0.5 
3 10 9 8 6 0.5 0.5 0.5 0.5 0.5 0.5 
3 9 10 11 6 0.5 0.5 0.5 0.5 0.5 0.5 
3 12 10 8 6 0.5 0.5 0.5 0.5 0.5 0.5 
3 10 12 14 6 0.5 0.5 0.5 0.5 0.5 0.5 
3 9 12 8 6 0.5 0.5 0.5 0.5 0.5 0.5 
3 12 9 13 6 0.5 0.5 0.5 0.5 0.5 0.5 
3 14 13 15 6 0.5 0.5 0.5 0.5 0.5 0.5 
3 13 14 12 6 0.5 0.5 0.5 0.5 0.5 0.5 
3 11 14 15 6 0.5 0.5 0.5 0.5 0.5 0.5 
3 14 11 10 6 0.5 0.5 0.5 0.5 0.5 0.5 
3 13 11 15 6 0.5 0.5 0.5 0.5 0.5 0.5 
3 11 13 9 6 0.5 0.5 0.5 0.5 0.5 0.5 
