ply
format ascii 1.0
comment VCGLIB generated
comment TextureFile texture13.png
comment TextureFile texture13.png
element vertex 24
property float x
property float y
property float z
element face 36
property list uchar int vertex_indices
property list uchar float texcoord
property int texnumber
end_header
-1.03994	-1.03436	-1.4517
0.96011	-1.03436	-1.4517
-1.03994	-0.0454586	-1.4517
0.96011	-0.0454586	-1.4517
-1.03994	-1.03436	0.54704
0.96011	-1.03436	0.54704
-1.03994	-0.0454586	0.54704
0.96011	-0.0454586	0.54704
-0.53991	-1.03991	-0.95233
0.46009	-1.03991	-0.95233
-0.53991	-0.0399112	-0.95233
0.46009	-0.0399112	-0.95233
-0.53991	-1.03991	0.0476705
0.46009	-1.03991	0.0476705
-0.53991	-0.0399112	0.0476705
0.46009	-0.0399112	0.0476705
-0.47772	-1.01912	-0.886668
0.52228	-1.01912	-0.886668
-0.47772	-0.0191172	-0.886668
0.52228	-0.0191172	-0.886668
-0.47772	-1.01912	0.113332
0.52228	-1.01912	0.113332
-0.47772	-0.0191172	0.113332
0.52228	-0.0191172	0.113332
3 2 1 0 6 0.5 0.5 0.5 0.5 0.5 0.5 -1 
3 1 2 3 6 0.5 0.5 0.5 0.5 0.5 0.5 -1 
3 4 2 0 6 0.5 0.5 0.5 0.5 0.5 0.5 -1 
3 2 4 6 6 0.5 0.5 0.5 0.5 0.5 0.5 -1 
3 1 4 0 6 0.5 0.5 0.5 0.5 0.5 0.5 -1 
3 4 1 5 6 0.5 0.5 0.5 0.5 0.5 0.5 -1 
3 6 5 7 6 0.5 0.5 0.5 0.5 0.5 0.5 -1 
3 5 6 4 6 0.5 0.5 0.5 0.5 0.5 0.5 -1 
3 3 6 7 6 0.5 0.5 0.5 0.5 0.5 0.5 -1 
3 6 3 2 6 0.5 0.5 0.5 0.5 0.5 0.5 -1 
3 5 3 7 6 0.5 0.5 0.5 0.5 0.5 0.5 -1 
3 3 5 1 6 0.5 0.5 0.5 0.5 0.5 0.5 -1 
3 10 9 8 6 0.5 0.5 0.5 0.5 0.5 0.5 -1 
3 9 10 11 6 0.5 0.5 0.5 0.5 0.5 0.5 -1 
3 12 10 8 6 0.5 0.5 0.5 0.5 0.5 0.5 -1 
3 10 12 14 6 0.5 0.5 0.5 0.5 0.5 0.5 -1 
3 9 12 8 6 0.5 0.5 0.5 0.5 0.5 0.5 -1 
3 12 9 13 6 0.5 0.5 0.5 0.5 0.5 0.5 -1 
3 14 13 15 6 0.5 0.5 0.5 0.5 0.5 0.5 -1 
3 13 14 12 6 0.5 0.5 0.5 0.5 0.5 0.5 -1 
3 11 14 15 6 0.5 0.5 0.5 0.5 0.5 0.5 -1 
3 14 11 10 6 0.5 0.5 0.5 0.5 0.5 0.5 -1 
3 13 11 15 6 0.5 0.5 0.5 0.5 0.5 0.5 -1 
3 11 13 9 6 0.5 0.5 0.5 0.5 0.5 0.5 -1 
3 18 17 16 6 0.363208 0.623341 0.642498 0.358576 0.635449 0.629153 0 
3 17 18 19 6 0.642498 0.358576 0.363208 0.623341 0.368147 0.352811 0 
3 20 18 16 6 0.672041 0.0195059 0.363208 0.318513 0.365451 0.00229845 0 
3 18 20 22 6 0.363208 0.318513 0.672041 0.0195059 0.653271 0.310796 0 
3 17 20 16 6 0.997004 0.317298 0.682084 0.00229845 0.987542 0.00545665 0 
3 20 17 21 6 0.682084 0.00229845 0.997004 0.317298 0.676844 0.316868 0 
3 22 21 23 6 0.676844 0.628041 0.982587 0.322298 0.982587 0.628041 0 
3 21 22 20 6 0.982587 0.322298 0.676844 0.628041 0.676844 0.322298 0 
3 19 22 23 6 0.0097818 0.0202085 0.358497 0.344822 0.00229845 0.337066 0 
3 22 19 18 6 0.358497 0.344822 0.0097818 0.0202085 0.327521 0.00229845 0 
3 21 19 23 6 0.634405 0.328669 0.368147 0.352811 0.374046 0.323208 0 
3 19 21 17 6 0.368147 0.352811 0.634405 0.328669 0.642498 0.358576 0 
